<svg width="50" height="50" viewBox="0 0 50 50" fill="none" xmlns="http://www.w3.org/2000/svg">
<path fill-rule="evenodd" clip-rule="evenodd" d="M49.082 0.917881C49.373 1.2081 49.6038 1.55287 49.7613 1.93244C49.9188 2.31202 49.9999 2.71893 49.9999 3.12989C49.9999 3.54084 49.9188 3.94776 49.7613 4.32733C49.6038 4.7069 49.373 5.05167 49.082 5.34189L5.34178 49.0821C4.75512 49.6688 3.95944 49.9984 3.12977 49.9984C2.30011 49.9984 1.50443 49.6688 0.917768 49.0821C0.331107 48.4955 0.00152589 47.6998 0.00152588 46.8701C0.00152587 46.0405 0.331107 45.2448 0.917768 44.6581L44.658 0.917881C44.9482 0.626926 45.293 0.396083 45.6726 0.238578C46.0521 0.0810732 46.459 0 46.87 0C47.281 0 47.6879 0.0810732 48.0674 0.238578C48.447 0.396083 48.7918 0.626926 49.082 0.917881Z" fill="#9E6DF7" fill-opacity="0.99"/>
<path fill-rule="evenodd" clip-rule="evenodd" d="M0.917881 0.917881C0.626926 1.2081 0.396083 1.55287 0.238578 1.93244C0.0810732 2.31202 0 2.71893 0 3.12989C0 3.54084 0.0810732 3.94776 0.238578 4.32733C0.396083 4.7069 0.626926 5.05167 0.917881 5.34189L44.6581 49.0821C45.2448 49.6688 46.0405 49.9984 46.8701 49.9984C47.6998 49.9984 48.4955 49.6688 49.0821 49.0821C49.6688 48.4955 49.9984 47.6998 49.9984 46.8701C49.9984 46.0405 49.6688 45.2448 49.0821 44.6581L5.34189 0.917881C5.05167 0.626926 4.7069 0.396083 4.32733 0.238578C3.94776 0.0810732 3.54084 0 3.12989 0C2.71893 0 2.31202 0.0810732 1.93244 0.238578C1.55287 0.396083 1.2081 0.626926 0.917881 0.917881Z" fill="#9E6DF7" fill-opacity="0.99"/>
</svg>
