<svg width="70" height="70" viewBox="0 0 70 70" fill="none" xmlns="http://www.w3.org/2000/svg">
<rect width="70" height="70" rx="35" fill="white"/>
<path d="M41.8793 20H28.1207C23.6429 20 20 23.6429 20 28.1207V41.8795C20 46.3571 23.6429 50 28.1207 50H41.8795C46.3571 50 50 46.3571 50 41.8795V28.1207C50 23.6429 46.3571 20 41.8793 20V20ZM48.2413 41.8795C48.2413 45.3873 45.3873 48.2413 41.8793 48.2413H28.1207C24.6127 48.2413 21.7587 45.3873 21.7587 41.8795V28.1207C21.7587 24.6127 24.6127 21.7587 28.1207 21.7587H41.8795C45.3873 21.7587 48.2413 24.6127 48.2413 28.1207V41.8795Z" fill="#FD7F57" fill-opacity="0.99"/>
<path d="M42.1793 19.7053V19.7H41.8793H28.1207C23.4772 19.7 19.7 23.4772 19.7 28.1207V41.8795C19.7 46.5228 23.4772 50.3 28.1207 50.3H41.8795C46.5228 50.3 50.3 46.5228 50.3 41.8795V28.1207C50.3 23.5776 46.6844 19.8638 42.1793 19.7053ZM47.9413 41.8795C47.9413 45.2217 45.2217 47.9413 41.8793 47.9413H28.1207C24.7783 47.9413 22.0587 45.2217 22.0587 41.8795V28.1207C22.0587 24.7783 24.7783 22.0587 28.1207 22.0587H41.8795C45.2217 22.0587 47.9413 24.7783 47.9413 28.1207V41.8795Z" stroke="#FD7F57" stroke-opacity="0.99" stroke-width="0.6"/>
<path d="M35 26.7971C30.4769 26.7971 26.7971 30.4769 26.7971 35C26.7971 39.5232 30.4769 43.2029 35 43.2029C39.5232 43.2029 43.2029 39.5232 43.2029 35C43.2029 30.4769 39.5232 26.7971 35 26.7971ZM35 41.4442C31.4469 41.4442 28.5558 38.5534 28.5558 35C28.5558 31.4469 31.4469 28.5558 35 28.5558C38.5534 28.5558 41.4442 31.4469 41.4442 35C41.4442 38.5534 38.5534 41.4442 35 41.4442Z" fill="#FD7F57" fill-opacity="0.99"/>
<path d="M35 26.4971C30.3112 26.4971 26.4971 30.3112 26.4971 35C26.4971 39.6889 30.3112 43.5029 35 43.5029C39.6889 43.5029 43.5029 39.6889 43.5029 35C43.5029 30.3112 39.6889 26.4971 35 26.4971ZM35 41.1442C31.6125 41.1442 28.8558 38.3877 28.8558 35C28.8558 31.6125 31.6125 28.8558 35 28.8558C38.3877 28.8558 41.1442 31.6125 41.1442 35C41.1442 38.3877 38.3877 41.1442 35 41.1442Z" stroke="#FD7F57" stroke-opacity="0.99" stroke-width="0.6"/>
<path d="M43.3991 23.8839C42.0624 23.8839 40.9752 24.9713 40.9752 26.3078C40.9752 27.6444 42.0624 28.7319 43.3991 28.7319C44.7357 28.7319 45.8232 27.6444 45.8232 26.3078C45.8232 24.9711 44.7357 23.8839 43.3991 23.8839ZM43.3991 26.9729C43.0324 26.9729 42.7339 26.6744 42.7339 26.3078C42.7339 25.9409 43.0324 25.6426 43.3991 25.6426C43.766 25.6426 44.0644 25.9409 44.0644 26.3078C44.0644 26.6744 43.766 26.9729 43.3991 26.9729Z" fill="#FD7F57" fill-opacity="0.99"/>
<path d="M43.3991 23.5839C41.8967 23.5839 40.6752 24.8057 40.6752 26.3078C40.6752 27.8101 41.8967 29.0319 43.3991 29.0319C44.9014 29.0319 46.1232 27.8101 46.1232 26.3078C46.1232 24.8054 44.9014 23.5839 43.3991 23.5839ZM43.3991 26.6729C43.1981 26.6729 43.0339 26.5088 43.0339 26.3078C43.0339 26.1066 43.198 25.9426 43.3991 25.9426C43.6004 25.9426 43.7644 26.1067 43.7644 26.3078C43.7644 26.5087 43.6004 26.6729 43.3991 26.6729Z" stroke="#FD7F57" stroke-opacity="0.99" stroke-width="0.6"/>
</svg>
